<svg xmlns="http://www.w3.org/2000/svg" viewBox="0 0 800 600" width="800" height="600">
  <!-- Background -->
  <rect width="800" height="600" fill="#ffffff" opacity="0.1"/>
  
  <!-- Parking Lot -->
  <rect x="100" y="300" width="600" height="250" fill="#e0e0e0" stroke="#333333" stroke-width="2"/>
  
  <!-- Parking Lines -->
  <line x1="200" y1="300" x2="200" y2="550" stroke="#ffffff" stroke-width="4"/>
  <line x1="300" y1="300" x2="300" y2="550" stroke="#ffffff" stroke-width="4"/>
  <line x1="400" y1="300" x2="400" y2="550" stroke="#ffffff" stroke-width="4"/>
  <line x1="500" y1="300" x2="500" y2="550" stroke="#ffffff" stroke-width="4"/>
  <line x1="600" y1="300" x2="600" y2="550" stroke="#ffffff" stroke-width="4"/>
  
  <!-- Cars -->
  <!-- Car 1 (Red) -->
  <rect x="110" y="320" width="80" height="150" rx="10" fill="#e74c3c"/>
  <rect x="120" y="350" width="60" height="40" fill="#ecf0f1"/>
  <circle cx="130" cy="500" r="15" fill="#333333"/>
  <circle cx="170" cy="500" r="15" fill="#333333"/>
  
  <!-- Car 2 (Blue) -->
  <rect x="310" y="320" width="80" height="150" rx="10" fill="#3498db"/>
  <rect x="320" y="350" width="60" height="40" fill="#ecf0f1"/>
  <circle cx="330" cy="500" r="15" fill="#333333"/>
  <circle cx="370" cy="500" r="15" fill="#333333"/>
  
  <!-- Car 3 (Green) -->
  <rect x="510" y="320" width="80" height="150" rx="10" fill="#2ecc71"/>
  <rect x="520" y="350" width="60" height="40" fill="#ecf0f1"/>
  <circle cx="530" cy="500" r="15" fill="#333333"/>
  <circle cx="570" cy="500" r="15" fill="#333333"/>
  
  <!-- Parking Sign -->
  <rect x="650" y="150" width="80" height="120" fill="#3498db" rx="5"/>
  <text x="690" y="210" font-family="Arial" font-size="60" fill="white" text-anchor="middle">P</text>
  <rect x="685" y="150" width="10" height="300" fill="#7f8c8d"/>
  
  <!-- Dashboard/Control Panel -->
  <rect x="150" y="100" width="300" height="180" rx="10" fill="#ecf0f1" stroke="#34495e" stroke-width="3"/>
  
  <!-- Screen -->
  <rect x="170" y="120" width="260" height="120" fill="#34495e"/>
  
  <!-- Screen Content: Parking Map -->
  <rect x="180" y="130" width="240" height="100" fill="#2c3e50"/>
  <rect x="190" y="140" width="30" height="20" fill="#e74c3c"/>
  <rect x="230" y="140" width="30" height="20" fill="#3498db"/>
  <rect x="270" y="140" width="30" height="20" fill="#2ecc71"/>
  <rect x="310" y="140" width="30" height="20" fill="#f1c40f"/>
  <rect x="350" y="140" width="30" height="20" fill="#9b59b6"/>
  
  <rect x="190" y="170" width="30" height="20" fill="#e74c3c"/>
  <rect x="230" y="170" width="30" height="20" fill="#3498db"/>
  <rect x="270" y="170" width="30" height="20" fill="#2ecc71"/>
  <rect x="310" y="170" width="30" height="20" fill="#f1c40f"/>
  <rect x="350" y="170" width="30" height="20" fill="#9b59b6"/>
  
  <rect x="190" y="200" width="30" height="20" fill="#e74c3c"/>
  <rect x="230" y="200" width="30" height="20" fill="#3498db"/>
  <rect x="270" y="200" width="30" height="20" fill="#2ecc71"/>
  <rect x="310" y="200" width="30" height="20" fill="#f1c40f"/>
  <rect x="350" y="200" width="30" height="20" fill="#9b59b6"/>
  
  <!-- Control Buttons -->
  <circle cx="200" cy="260" r="10" fill="#e74c3c"/>
  <circle cx="230" cy="260" r="10" fill="#3498db"/>
  <circle cx="260" cy="260" r="10" fill="#2ecc71"/>
  
  <!-- Status Indicators -->
  <rect x="290" y="255" width="140" height="10" rx="5" fill="#95a5a6"/>
  <rect x="290" y="255" width="100" height="10" rx="5" fill="#2ecc71"/>
  
  <!-- Mobile Device -->
  <rect x="500" y="150" width="100" height="180" rx="10" fill="#34495e"/>
  <rect x="510" y="170" width="80" height="140" fill="#ecf0f1"/>
  
  <!-- App Interface -->
  <rect x="520" y="180" width="60" height="10" fill="#3498db"/>
  <rect x="520" y="200" width="60" height="10" fill="#3498db"/>
  <rect x="520" y="220" width="60" height="10" fill="#3498db"/>
  <rect x="520" y="240" width="30" height="30" fill="#e74c3c"/>
  <rect x="560" y="240" width="20" height="30" fill="#2ecc71"/>
  <circle cx="550" cy="290" r="10" fill="#7f8c8d"/>
  
  <!-- Connection Lines (representing data flow) -->
  <path d="M 300 250 Q 400 200 500 200" stroke="#3498db" stroke-width="3" fill="none" stroke-dasharray="5,5"/>
  <path d="M 450 300 Q 500 250 550 250" stroke="#3498db" stroke-width="3" fill="none" stroke-dasharray="5,5"/>
  
  <!-- Decorative Elements -->
  <circle cx="100" cy="100" r="50" fill="#3498db" opacity="0.2"/>
  <circle cx="700" cy="500" r="70" fill="#2ecc71" opacity="0.2"/>
  
  <!-- RMT Park Logo -->
  <text x="400" y="50" font-family="Arial" font-size="40" font-weight="bold" fill="#2c3e50" text-anchor="middle">RMT Park</text>
  <text x="400" y="75" font-family="Arial" font-size="20" fill="#7f8c8d" text-anchor="middle">Gestão Inteligente de Estacionamentos</text>
</svg>